<?xml version="1.0" encoding="UTF-8" standalone="no"?><!DOCTYPE svg PUBLIC "-//W3C//DTD SVG 1.1//EN" "http://www.w3.org/Graphics/SVG/1.1/DTD/svg11.dtd"><svg width="100%" height="100%" viewBox="0 0 3371 3213" version="1.1" xmlns="http://www.w3.org/2000/svg" xmlns:xlink="http://www.w3.org/1999/xlink" xml:space="preserve" xmlns:serif="http://www.serif.com/" style="fill-rule:evenodd;clip-rule:evenodd;stroke-linecap:round;stroke-linejoin:round;stroke-miterlimit:1.5;"><path d="M94.121,2312.39l222.65,-0l43.667,81.187l-271.855,0c-30.341,0 -54.329,-11.483 -71.958,-34.446c-11.071,-14.35 -16.608,-30.341 -16.608,-47.975l-0,-385.02l94.104,-0l-0,386.254Z" style="fill:#fff;fill-rule:nonzero;"/><rect x="400.421" y="1926.13" width="94.104" height="467.442" style="fill:#fff;"/><path d="M674.733,2202.91l0,109.484l241.1,-0l44.284,81.187l-290.921,0c-29.934,0 -53.917,-11.279 -71.959,-33.829c-11.483,-14.762 -17.225,-30.958 -17.225,-48.592l0,-302.604c0,-27.475 11.892,-49.408 35.675,-65.812c15.992,-11.071 33.83,-16.604 53.509,-16.604l290.921,-0l-44.284,81.187l-241.1,0l0,114.396l222.034,-0l-0,81.187l-222.034,0Z" style="fill:#fff;fill-rule:nonzero;"/><path d="M1102.2,2103.88l-0,111.942c-0,31.983 11.479,57.608 34.442,76.883c15.991,13.121 33.42,19.679 52.279,19.679l62.737,0c25.421,0 46.95,-8.608 64.579,-25.833c2.463,-2.458 4.513,-4.712 6.15,-6.762l81.805,62.733c-22.963,21.733 -58.43,37.108 -106.405,46.129c-16.812,3.279 -32.187,4.921 -46.129,4.921l-62.737,0c-50.842,0 -94.1,-18.042 -129.775,-54.125c-34.034,-34.442 -51.05,-75.65 -51.05,-123.625l-0,-111.942c-0,-50.02 18.041,-92.462 54.125,-127.316c35.675,-33.621 77.908,-50.434 126.7,-50.434l62.737,0c39.775,0 78.317,8.817 115.629,26.45c15.584,7.788 27.884,15.992 36.904,24.6l-81.804,63.35c-14.35,-18.45 -34.237,-29.316 -59.658,-32.595c-4.1,-0.413 -7.792,-0.617 -11.071,-0.617l-62.737,-0c-28.292,-0 -51.046,12.508 -68.271,37.521c-12.3,17.629 -18.45,37.312 -18.45,59.041Z" style="fill:#fff;fill-rule:nonzero;"/><path d="M1570.86,2172.77l31.983,-51.05l170.367,-0l-0,-195.583l94.72,-0l0,467.437l-94.72,0l-0,-190.667l-202.351,0l0,190.667l-94.104,0l0,-467.437l94.104,-0l0,246.633Z" style="fill:#fff;fill-rule:nonzero;"/><path d="M2154.55,2393.58l-94.717,0l0.001,-385.025c-0.001,-27.471 11.891,-49.408 35.675,-65.808c15.987,-11.071 33.824,-16.609 53.508,-16.609l139.617,0l-0.001,81.188l-134.083,-0l0,386.254Zm-76.879,-467.442l-50.433,81.188l-92.875,-0l-0,-81.188l143.308,0Z" style="fill:#fff;fill-rule:nonzero;"/><rect x="2356.29" y="1926.13" width="94.104" height="467.442" style="fill:#fff;"/><rect x="2534.04" y="2121.72" width="244.175" height="81.187" style="fill:#fff;"/><rect x="2852.63" y="1926.13" width="94.104" height="467.442" style="fill:#fff;"/><path d="M3233.97,2393.58l-94.721,0l0,-385.025c0,-27.471 11.892,-49.408 35.675,-65.808c15.992,-11.071 33.829,-16.609 53.509,-16.609l139.616,0l0,81.188l-134.079,-0l0,386.254Zm-76.883,-467.442l-50.434,81.188l-92.875,-0l0,-81.188l143.309,0Z" style="fill:#fff;fill-rule:nonzero;"/><path d="M1937.78,1245.35c0,-28.867 -23.433,-52.3 -52.3,-52.3l-418.375,0c-28.863,0 -52.296,23.433 -52.296,52.3l0,418.375c0,28.863 23.433,52.296 52.296,52.296l418.375,-0c28.867,-0 52.3,-23.433 52.3,-52.296l-0,-418.375Z" style="fill:none;stroke:#fff;stroke-width:36.83px;"/><rect x="1278.58" y="1272.06" width="136.221" height="23.721" style="fill:#fff;"/><path d="M1295.37,1279.01l-158,-158l-16.771,16.775l157.996,158l16.775,-16.775Z" style="fill:#fff;"/><path d="M1213.96,1333.5l-103.442,-103.442l-16.775,16.775l103.442,103.442l16.775,-16.775Z" style="fill:#fff;"/><rect x="1051.36" y="1121.02" width="86.008" height="23.721" style="fill:#fff;"/><rect x="1197.16" y="1326.56" width="217.65" height="23.721" style="fill:#fff;"/><rect x="1137.37" y="1388.19" width="277.442" height="23.721" style="fill:#fff;"/><rect x="1032.61" y="1442.67" width="382.196" height="23.721" style="fill:#fff;"/><rect x="1146.29" y="1497.17" width="268.521" height="23.721" style="fill:#fff;"/><rect x="1223.74" y="1558.8" width="191.067" height="23.721" style="fill:#fff;"/><rect x="1310.24" y="1613.3" width="104.567" height="23.721" style="fill:#fff;"/><path d="M1310.17,1613.3l-152.284,152.283l16.775,16.775l152.284,-152.283l-16.775,-16.775Z" style="fill:#fff;"/><path d="M1223.74,1558.8l-136.313,136.313l16.775,16.774l136.312,-136.312l-16.775,-16.775Z" style="fill:#fff;"/><path d="M1146.3,1497.17l-113.684,113.683l16.771,16.775l113.684,-113.683l-16.771,-16.775Z" style="fill:#fff;"/><rect x="1493.82" y="1716.03" width="23.721" height="88.071" style="fill:#fff;"/><rect x="1548.31" y="1716.03" width="23.721" height="88.071" style="fill:#fff;"/><rect x="1609.94" y="1716.03" width="23.721" height="88.071" style="fill:#fff;"/><rect x="1664.42" y="1716.03" width="23.721" height="88.071" style="fill:#fff;"/><rect x="1718.92" y="1716.03" width="23.721" height="88.071" style="fill:#fff;"/><rect x="1780.56" y="1716.03" width="23.721" height="88.071" style="fill:#fff;"/><rect x="1835.05" y="1716.03" width="23.721" height="88.071" style="fill:#fff;"/><circle cx="1133.93" cy="1400.05" r="35.233" style="fill:#fff;"/><circle cx="1104.2" cy="1238.57" r="35.233" style="fill:#fff;"/><circle cx="1046.95" cy="1132.88" r="35.233" style="fill:#fff;"/><circle cx="1025.74" cy="1454.54" r="35.233" style="fill:#fff;"/><circle cx="1046.95" cy="1609.98" r="35.233" style="fill:#fff;"/><circle cx="1104.2" cy="1695.12" r="35.233" style="fill:#fff;"/><circle cx="1174.66" cy="1765.58" r="35.233" style="fill:#fff;"/><rect x="1949.58" y="1613.33" width="136.221" height="23.721" style="fill:#fff;"/><path d="M2069.01,1630.1l157.999,158l16.776,-16.775l-158.001,-157.996l-16.774,16.771Z" style="fill:#fff;"/><path d="M2150.41,1575.62l103.442,103.441l16.775,-16.775l-103.442,-103.441l-16.775,16.775Z" style="fill:#fff;"/><rect x="2227.01" y="1764.38" width="86.008" height="23.721" style="fill:#fff;"/><rect x="1949.58" y="1558.84" width="217.65" height="23.721" style="fill:#fff;"/><rect x="1949.58" y="1497.21" width="277.442" height="23.721" style="fill:#fff;"/><rect x="1949.58" y="1442.72" width="382.196" height="23.721" style="fill:#fff;"/><rect x="1949.58" y="1388.23" width="268.521" height="23.721" style="fill:#fff;"/><rect x="1949.58" y="1326.6" width="191.067" height="23.721" style="fill:#fff;"/><rect x="1949.58" y="1272.1" width="104.567" height="23.721" style="fill:#fff;"/><path d="M2054.21,1295.83l152.284,-152.279l-16.775,-16.775l-152.284,152.283l16.775,16.771Z" style="fill:#fff;"/><path d="M2140.64,1350.31l136.308,-136.309l-16.771,-16.775l-136.312,136.313l16.775,16.77Z" style="fill:#fff;"/><path d="M2218.09,1411.95l113.683,-113.683l-16.775,-16.771l-113.683,113.683l16.774,16.771Z" style="fill:#fff;"/><circle cx="2230.45" cy="1509.07" r="35.233" style="fill:#fff;"/><circle cx="2260.18" cy="1670.55" r="35.233" style="fill:#fff;"/><circle cx="2317.43" cy="1776.25" r="35.233" style="fill:#fff;"/><circle cx="2338.64" cy="1454.58" r="35.233" style="fill:#fff;"/><circle cx="2317.43" cy="1299.15" r="35.233" style="fill:#fff;"/><circle cx="2260.18" cy="1214.01" r="35.233" style="fill:#fff;"/><circle cx="2189.71" cy="1143.54" r="35.233" style="fill:#fff;"/><rect x="1835.38" y="1125.93" width="23.721" height="59.667" style="fill:#fff;"/><path d="M1852.15,1142.71l158,-157.996l-16.775,-16.775l-158,157.996l16.775,16.774Z" style="fill:#fff;"/><path d="M1797.65,1061.32l103.442,-103.442l-16.775,-16.775l-103.442,103.442l16.775,16.775Z" style="fill:#fff;"/><rect x="1986.42" y="898.704" width="23.725" height="86.008" style="fill:#fff;"/><rect x="1780.89" y="1044.55" width="23.721" height="141.038" style="fill:#fff;"/><rect x="1719.26" y="959.829" width="23.721" height="225.763" style="fill:#fff;"/><rect x="1664.77" y="860.575" width="23.721" height="325.021" style="fill:#fff;"/><rect x="1610.27" y="973.967" width="23.721" height="211.625" style="fill:#fff;"/><rect x="1548.64" y="1051.43" width="23.721" height="134.158" style="fill:#fff;"/><rect x="1494.15" y="1137.88" width="23.721" height="47.717" style="fill:#fff;"/><path d="M1517.87,1137.89l-152.284,-152.28l-16.774,16.771l152.283,152.284l16.775,-16.775Z" style="fill:#fff;"/><path d="M1572.37,1051.45l-136.313,-136.312l-16.775,16.775l136.313,136.308l16.775,-16.771Z" style="fill:#fff;"/><path d="M1633.99,974.013l-113.684,-113.684l-16.775,16.775l113.684,113.684l16.774,-16.775Z" style="fill:#fff;"/><path d="M1766.36,961.65c0,19.446 -15.787,35.229 -35.233,35.229c-19.446,0 -35.233,-15.783 -35.233,-35.229c-0,-19.446 15.787,-35.233 35.233,-35.233c19.446,-0 35.233,15.787 35.233,35.233Z" style="fill:#fff;"/><path d="M1927.83,951.546c0,19.446 -15.787,35.233 -35.233,35.233c-19.446,0 -35.234,-15.787 -35.234,-35.233c0,-19.446 15.788,-35.233 35.234,-35.233c19.445,-0 35.233,15.787 35.233,35.233Z" style="fill:#fff;"/><path d="M2033.53,894.296c0,19.442 -15.787,35.229 -35.233,35.229c-19.446,0 -35.234,-15.787 -35.234,-35.229c0,-19.446 15.788,-35.233 35.234,-35.233c19.445,-0 35.233,15.787 35.233,35.233Z" style="fill:#fff;"/><path d="M1711.85,853.458c0,19.446 -15.783,35.234 -35.229,35.234c-19.446,-0 -35.233,-15.788 -35.233,-35.234c-0,-19.445 15.787,-35.233 35.233,-35.233c19.446,0 35.229,15.788 35.229,35.233Z" style="fill:#fff;"/><path d="M1556.42,874.663c-0,19.445 -15.788,35.233 -35.234,35.233c-19.445,-0 -35.233,-15.788 -35.233,-35.233c0,-19.446 15.788,-35.23 35.233,-35.23c19.446,0 35.234,15.784 35.234,35.23Z" style="fill:#fff;"/><path d="M1471.28,931.917c0,19.441 -15.787,35.229 -35.233,35.229c-19.442,-0 -35.229,-15.788 -35.229,-35.229c-0,-19.446 15.787,-35.234 35.229,-35.234c19.446,0 35.233,15.788 35.233,35.234Z" style="fill:#fff;"/><path d="M1400.82,1002.38c-0,19.446 -15.788,35.233 -35.234,35.233c-19.445,0 -35.229,-15.787 -35.229,-35.233c0,-19.446 15.784,-35.233 35.229,-35.233c19.446,-0 35.234,15.787 35.234,35.233Z" style="fill:#fff;"/><path d="M1881.95,1290.02c-0,-22.7 -18.429,-41.129 -41.129,-41.129l-329.038,-0c-22.7,-0 -41.129,18.429 -41.129,41.129l-0,329.037c-0,22.7 18.429,41.134 41.129,41.134l329.038,-0c22.7,-0 41.129,-18.434 41.129,-41.134l-0,-329.037Zm-47.421,306.737c8.837,0 16.012,7.175 16.012,16.013c0,8.833 -7.175,16.008 -16.012,16.008c-8.838,0 -16.013,-7.175 -16.013,-16.008c0,-8.838 7.175,-16.013 16.013,-16.013Z" style="fill:#fff;"/><path d="M2141.6,2559.33l74.2,0l0,28.708l-74.2,0l0,-28.708Zm2.65,85.021l-35.775,-0l0,-154.583l116.821,-0l-0,28.708l-81.046,-0l0,125.875Z" style="fill:#26a790;fill-rule:nonzero;"/><path d="M2247.16,2644.35l0,-118.808l34.45,-0l0,118.808l-34.45,-0Zm17.225,-135.371c-6.33,0 -11.483,-1.84 -15.458,-5.521c-3.975,-3.68 -5.962,-8.244 -5.962,-13.691c-0,-5.448 1.987,-10.012 5.962,-13.692c3.975,-3.681 9.128,-5.521 15.458,-5.521c6.331,0 11.484,1.73 15.459,5.19c3.975,3.459 5.962,7.913 5.962,13.36c0,5.742 -1.95,10.49 -5.852,14.244c-3.901,3.754 -9.091,5.631 -15.569,5.631Z" style="fill:#26a790;fill-rule:nonzero;"/><rect x="2313.63" y="2480.49" width="34.45" height="163.858" style="fill:#26a790;fill-rule:nonzero;"/><path d="M2439.06,2646.12c-13.545,-0 -25.433,-2.65 -35.665,-7.95c-10.232,-5.3 -18.145,-12.551 -23.74,-21.753c-5.594,-9.201 -8.391,-19.69 -8.391,-31.468c-0,-11.925 2.76,-22.488 8.281,-31.69c5.521,-9.201 13.066,-16.415 22.635,-21.642c9.57,-5.226 20.391,-7.839 32.463,-7.839c11.63,-0 22.12,2.466 31.469,7.398c9.348,4.932 16.746,11.998 22.193,21.2c5.448,9.201 8.171,20.206 8.171,33.014c0,1.325 -0.073,2.834 -0.221,4.527c-0.147,1.694 -0.294,3.276 -0.441,4.748l-96.504,0l-0,-20.095l78.395,-0l-13.25,5.962c0,-6.183 -1.251,-11.557 -3.754,-16.121c-2.503,-4.564 -5.962,-8.134 -10.379,-10.71c-4.417,-2.577 -9.569,-3.865 -15.458,-3.865c-5.889,0 -11.079,1.288 -15.569,3.865c-4.49,2.576 -7.987,6.183 -10.49,10.821c-2.502,4.637 -3.754,10.121 -3.754,16.452l0,5.3c0,6.478 1.436,12.182 4.306,17.114c2.871,4.932 6.92,8.686 12.146,11.263c5.227,2.576 11.373,3.864 18.44,3.864c6.33,0 11.888,-0.957 16.673,-2.87c4.785,-1.914 9.164,-4.785 13.139,-8.613l18.33,19.875c-5.448,6.183 -12.294,10.931 -20.538,14.244c-8.244,3.312 -17.74,4.969 -28.487,4.969Z" style="fill:#26a790;fill-rule:nonzero;"/><path d="M2590.55,2647c-21.936,-0 -39.087,-6.11 -51.454,-18.329c-12.367,-12.22 -18.55,-29.666 -18.55,-52.338l0,-86.566l35.775,-0l0,85.241c0,14.722 3.018,25.322 9.054,31.8c6.036,6.478 14.502,9.717 25.396,9.717c10.894,-0 19.36,-3.239 25.396,-9.717c6.036,-6.478 9.054,-17.078 9.054,-31.8l0,-85.241l35.333,-0l0,86.566c0,22.672 -6.183,40.118 -18.55,52.338c-12.366,12.219 -29.518,18.329 -51.454,18.329Z" style="fill:#26a790;fill-rule:nonzero;"/><path d="M2763.68,2646.12c-10.012,-0 -18.771,-2.209 -26.28,-6.625c-7.508,-4.417 -13.36,-11.153 -17.556,-20.207c-4.196,-9.054 -6.294,-20.5 -6.294,-34.339c0,-13.986 1.988,-25.47 5.963,-34.45c3.975,-8.981 9.717,-15.679 17.225,-20.096c7.508,-4.417 16.489,-6.625 26.942,-6.625c11.188,-0 21.236,2.539 30.143,7.619c8.907,5.079 15.974,12.182 21.2,21.31c5.227,9.128 7.84,19.875 7.84,32.242c-0,12.514 -2.613,23.334 -7.84,32.462c-5.226,9.128 -12.293,16.195 -21.2,21.2c-8.907,5.006 -18.955,7.509 -30.143,7.509Zm-70.225,41.075l-0,-161.65l32.904,-0l-0,24.291l-0.663,35.334l2.209,35.112l-0,66.913l-34.45,-0Zm64.262,-69.342c5.742,-0 10.858,-1.325 15.348,-3.975c4.49,-2.65 8.097,-6.441 10.821,-11.373c2.723,-4.932 4.085,-10.784 4.085,-17.556c0,-6.92 -1.362,-12.809 -4.085,-17.667c-2.724,-4.858 -6.331,-8.612 -10.821,-11.262c-4.49,-2.65 -9.606,-3.975 -15.348,-3.975c-5.742,-0 -10.894,1.325 -15.458,3.975c-4.564,2.65 -8.171,6.404 -10.821,11.262c-2.65,4.858 -3.975,10.747 -3.975,17.667c-0,6.772 1.325,12.624 3.975,17.556c2.65,4.932 6.257,8.723 10.821,11.373c4.564,2.65 9.716,3.975 15.458,3.975Z" style="fill:#26a790;fill-rule:nonzero;"/><rect x="2845.84" y="2480.49" width="34.45" height="163.858" style="fill:#26a790;fill-rule:nonzero;"/><path d="M2968.84,2646.12c-12.661,-0 -23.887,-2.65 -33.677,-7.95c-9.791,-5.3 -17.52,-12.551 -23.188,-21.753c-5.668,-9.201 -8.502,-19.69 -8.502,-31.468c0,-11.925 2.834,-22.488 8.502,-31.69c5.668,-9.201 13.397,-16.415 23.188,-21.642c9.79,-5.226 21.016,-7.839 33.677,-7.839c12.514,-0 23.702,2.613 33.566,7.839c9.864,5.227 17.593,12.404 23.188,21.532c5.594,9.128 8.392,19.728 8.392,31.8c-0,11.778 -2.798,22.267 -8.392,31.468c-5.595,9.202 -13.324,16.453 -23.188,21.753c-9.864,5.3 -21.052,7.95 -33.566,7.95Zm-0,-28.267c5.741,-0 10.894,-1.325 15.458,-3.975c4.564,-2.65 8.171,-6.441 10.821,-11.373c2.65,-4.932 3.975,-10.784 3.975,-17.556c-0,-6.92 -1.325,-12.809 -3.975,-17.667c-2.65,-4.858 -6.257,-8.612 -10.821,-11.262c-4.564,-2.65 -9.717,-3.975 -15.458,-3.975c-5.742,-0 -10.895,1.325 -15.459,3.975c-4.564,2.65 -8.207,6.404 -10.931,11.262c-2.723,4.858 -4.085,10.747 -4.085,17.667c-0,6.772 1.362,12.624 4.085,17.556c2.724,4.932 6.367,8.723 10.931,11.373c4.564,2.65 9.717,3.975 15.459,3.975Z" style="fill:#26a790;fill-rule:nonzero;"/><path d="M3127.84,2644.35l-0,-23.188l-2.209,-5.079l0,-41.516c0,-7.362 -2.245,-13.103 -6.735,-17.225c-4.49,-4.123 -11.373,-6.184 -20.648,-6.184c-6.331,0 -12.551,0.994 -18.66,2.981c-6.11,1.988 -11.3,4.675 -15.569,8.061l-12.367,-24.071c6.478,-4.564 14.281,-8.097 23.409,-10.6c9.127,-2.503 18.402,-3.754 27.825,-3.754c18.108,-0 32.168,4.269 42.179,12.808c10.011,8.539 15.016,21.863 15.016,39.971l0,67.796l-32.241,-0Zm-36.217,1.767c-9.275,-0 -17.225,-1.583 -23.85,-4.748c-6.625,-3.166 -11.704,-7.472 -15.237,-12.919c-3.534,-5.447 -5.3,-11.557 -5.3,-18.329c-0,-7.067 1.729,-13.25 5.189,-18.55c3.46,-5.3 8.944,-9.459 16.452,-12.477c7.509,-3.018 17.299,-4.527 29.371,-4.527l31.579,-0l0,20.095l-27.825,0c-8.097,0 -13.655,1.325 -16.673,3.975c-3.018,2.65 -4.527,5.963 -4.527,9.938c0,4.417 1.73,7.913 5.19,10.489c3.46,2.577 8.207,3.865 14.244,3.865c5.741,0 10.894,-1.362 15.458,-4.085c4.564,-2.724 7.876,-6.736 9.937,-12.036l5.3,15.9c-2.502,7.656 -7.066,13.471 -13.691,17.446c-6.625,3.975 -15.164,5.963 -25.617,5.963Z" style="fill:#26a790;fill-rule:nonzero;"/><path d="M3243.11,2646.12c-11.189,-0 -21.274,-2.54 -30.254,-7.619c-8.981,-5.079 -16.084,-12.183 -21.311,-21.311c-5.226,-9.127 -7.839,-19.875 -7.839,-32.241c-0,-12.514 2.613,-23.335 7.839,-32.463c5.227,-9.128 12.33,-16.194 21.311,-21.2c8.98,-5.005 19.065,-7.508 30.254,-7.508c10.011,-0 18.771,2.208 26.279,6.625c7.508,4.417 13.323,11.115 17.446,20.096c4.122,8.98 6.183,20.464 6.183,34.45c0,13.839 -1.987,25.285 -5.962,34.339c-3.975,9.054 -9.68,15.79 -17.115,20.207c-7.435,4.416 -16.379,6.625 -26.831,6.625Zm5.962,-28.267c5.595,-0 10.674,-1.325 15.238,-3.975c4.564,-2.65 8.207,-6.441 10.931,-11.373c2.724,-4.932 4.085,-10.784 4.085,-17.556c0,-6.92 -1.361,-12.809 -4.085,-17.667c-2.724,-4.858 -6.367,-8.612 -10.931,-11.262c-4.564,-2.65 -9.643,-3.975 -15.238,-3.975c-5.741,-0 -10.894,1.325 -15.458,3.975c-4.564,2.65 -8.208,6.404 -10.931,11.262c-2.724,4.858 -4.086,10.747 -4.086,17.667c0,6.772 1.362,12.624 4.086,17.556c2.723,4.932 6.367,8.723 10.931,11.373c4.564,2.65 9.717,3.975 15.458,3.975Zm31.138,26.5l-0,-24.292l0.662,-35.333l-2.208,-35.113l-0,-69.12l34.45,-0l-0,163.858l-32.904,-0Z" style="fill:#26a790;fill-rule:nonzero;"/></svg>