<?xml version="1.0" encoding="UTF-8" standalone="no"?><!DOCTYPE svg PUBLIC "-//W3C//DTD SVG 1.1//EN" "http://www.w3.org/Graphics/SVG/1.1/DTD/svg11.dtd"><svg width="100%" height="100%" viewBox="0 0 14046 13388" version="1.1" xmlns="http://www.w3.org/2000/svg" xmlns:xlink="http://www.w3.org/1999/xlink" xml:space="preserve" xmlns:serif="http://www.serif.com/" style="fill-rule:evenodd;clip-rule:evenodd;stroke-linejoin:round;stroke-miterlimit:2;"><path d="M4652.8,8582.04c-650.085,-63.873 -1158.72,-612.781 -1158.72,-1279.55c0,-523.849 313.955,-974.948 763.885,-1175.27c-30.807,-131.42 -47.107,-268.437 -47.107,-409.23c0,-987.33 801.587,-1788.92 1788.92,-1788.92c674.347,0 1262.05,373.932 1566.94,925.687c236.931,-172.445 528.588,-274.231 843.83,-274.231c792.664,-0 1436.21,643.542 1436.21,1436.21l-0.004,2.664c670.805,42.942 1202.43,601.425 1202.43,1283.1c0,681.67 -531.624,1240.15 -1202.42,1283.09l0,2.664l-5193.95,0l-0,-6.21Z" style="fill:#fff;"/><g><path d="M7409.65,9140.59l309.167,-0l-0,119.616l-309.167,0l0,-119.616Zm11.042,354.254l-149.063,-0l0,-644.096l486.754,-0l0,119.617l-337.691,-0l-0,524.479Z" style="fill:#26a790;fill-rule:nonzero;"/><path d="M7849.48,9494.84l0,-495.034l143.542,0l0,495.034l-143.542,-0Zm71.771,-564.046c-26.375,-0 -47.846,-7.667 -64.408,-23.004c-16.563,-15.334 -24.842,-34.35 -24.842,-57.046c0,-22.7 8.279,-41.717 24.842,-57.05c16.562,-15.338 38.033,-23.004 64.408,-23.004c26.379,-0 47.85,7.208 64.413,21.625c16.562,14.412 24.841,32.97 24.841,55.666c0,23.925 -8.125,43.709 -24.383,59.35c-16.254,15.642 -37.879,23.463 -64.871,23.463Z" style="fill:#26a790;fill-rule:nonzero;"/><rect x="8126.44" y="8812.09" width="143.542" height="682.742" style="fill:#26a790;"/><path d="M8649.07,9502.22c-56.438,-0 -105.971,-11.042 -148.604,-33.125c-42.634,-22.084 -75.605,-52.296 -98.917,-90.638c-23.308,-38.337 -34.963,-82.042 -34.963,-131.117c0,-49.687 11.5,-93.7 34.505,-132.041c23.004,-38.338 54.441,-68.396 94.312,-90.175c39.875,-21.775 84.963,-32.663 135.263,-32.663c48.458,0 92.166,10.275 131.12,30.825c38.95,20.55 69.775,49.992 92.471,88.334c22.7,38.337 34.046,84.191 34.046,137.558c0,5.521 -0.304,11.808 -0.921,18.862c-0.612,7.059 -1.225,13.65 -1.837,19.784l-402.1,-0l-0,-83.729l326.646,-0l-55.209,24.841c0,-25.762 -5.212,-48.154 -15.641,-67.171c-10.43,-19.016 -24.842,-33.891 -43.246,-44.625c-18.404,-10.737 -39.871,-16.104 -64.409,-16.104c-24.537,0 -46.162,5.367 -64.87,16.104c-18.709,10.734 -33.28,25.763 -43.709,45.088c-10.425,19.321 -15.641,42.171 -15.641,68.55l-0,22.083c-0,26.992 5.983,50.759 17.941,71.309c11.963,20.55 28.834,36.191 50.609,46.929c21.779,10.733 47.387,16.1 76.833,16.1c26.375,-0 49.533,-3.988 69.471,-11.959c19.937,-7.975 38.183,-19.937 54.746,-35.887l76.375,82.812c-22.7,25.763 -51.225,45.546 -85.575,59.35c-34.35,13.8 -73.917,20.705 -118.696,20.705Z" style="fill:#26a790;fill-rule:nonzero;"/><path d="M9280.27,9505.88c-91.4,0 -162.862,-25.458 -214.392,-76.371c-51.529,-50.916 -77.291,-123.608 -77.291,-218.075l-0,-360.691l149.062,-0l0,355.171c0,61.341 12.575,105.508 37.725,132.5c25.15,26.991 60.425,40.487 105.817,40.487c45.392,0 80.667,-13.496 105.817,-40.487c25.15,-26.992 37.725,-71.159 37.725,-132.5l-0,-355.171l147.22,-0l0,360.691c0,94.467 -25.762,167.159 -77.291,218.075c-51.525,50.913 -122.992,76.371 -214.392,76.371Z" style="fill:#26a790;fill-rule:nonzero;"/><path d="M10001.6,9502.22c-41.717,-0 -78.212,-9.205 -109.5,-27.605c-31.283,-18.404 -55.667,-46.47 -73.15,-84.195c-17.483,-37.725 -26.225,-85.417 -26.225,-143.08c0,-58.275 8.283,-106.125 24.846,-143.541c16.562,-37.421 40.487,-65.329 71.771,-83.734c31.283,-18.404 68.704,-27.604 112.258,-27.604c46.617,0 88.483,10.579 125.596,31.746c37.112,21.163 66.558,50.758 88.333,88.792c21.779,38.033 32.667,82.812 32.667,134.341c-0,52.142 -10.888,97.225 -32.667,135.259c-21.775,38.033 -51.221,67.479 -88.333,88.333c-37.113,20.858 -78.979,31.288 -125.596,31.288Zm-292.604,171.145l-0,-673.541l137.1,-0l-0,101.212l-2.763,147.225l9.205,146.3l-0,278.804l-143.542,0Zm267.758,-288.925c23.925,0 45.242,-5.52 63.95,-16.562c18.709,-11.042 33.738,-26.838 45.088,-47.388c11.346,-20.55 17.021,-44.933 17.021,-73.15c-0,-28.833 -5.675,-53.37 -17.021,-73.612c-11.35,-20.242 -26.379,-35.883 -45.088,-46.925c-18.708,-11.042 -40.025,-16.563 -63.95,-16.563c-23.925,0 -45.391,5.521 -64.408,16.563c-19.017,11.042 -34.046,26.683 -45.088,46.925c-11.041,20.242 -16.562,44.779 -16.562,73.612c-0,28.217 5.521,52.6 16.562,73.15c11.042,20.55 26.071,36.346 45.088,47.388c19.017,11.042 40.483,16.562 64.408,16.562Z" style="fill:#26a790;fill-rule:nonzero;"/><rect x="10344" y="8812.09" width="143.542" height="682.742" style="fill:#26a790;"/><path d="M10856.5,9502.22c-52.754,-0 -99.529,-11.042 -140.32,-33.125c-40.796,-22.084 -73,-52.296 -96.617,-90.638c-23.617,-38.337 -35.425,-82.042 -35.425,-131.117c-0,-49.687 11.808,-93.7 35.425,-132.041c23.617,-38.338 55.821,-68.396 96.617,-90.175c40.791,-21.775 87.566,-32.663 140.32,-32.663c52.142,0 98.759,10.888 139.859,32.663c41.1,21.779 73.304,51.683 96.616,89.716c23.309,38.034 34.967,82.2 34.967,132.5c0,49.075 -11.658,92.78 -34.967,131.117c-23.312,38.342 -55.516,68.554 -96.616,90.638c-41.1,22.083 -87.717,33.125 -139.859,33.125Zm0,-117.78c23.921,0 45.392,-5.52 64.409,-16.562c19.016,-11.042 34.046,-26.838 45.087,-47.388c11.042,-20.55 16.563,-44.933 16.563,-73.15c-0,-28.833 -5.521,-53.37 -16.563,-73.612c-11.041,-20.242 -26.071,-35.883 -45.087,-46.925c-19.017,-11.042 -40.488,-16.563 -64.409,-16.563c-23.925,0 -45.395,5.521 -64.412,16.563c-19.017,11.042 -34.196,26.683 -45.546,46.925c-11.346,20.242 -17.021,44.779 -17.021,73.612c0,28.217 5.675,52.6 17.021,73.15c11.35,20.55 26.529,36.346 45.546,47.388c19.017,11.042 40.487,16.562 64.412,16.562Z" style="fill:#26a790;fill-rule:nonzero;"/><path d="M11519,9494.84l0,-96.617l-9.204,-21.163l0,-172.983c0,-30.675 -9.354,-54.596 -28.062,-71.771c-18.709,-17.179 -47.388,-25.766 -86.034,-25.766c-26.379,-0 -52.295,4.141 -77.75,12.42c-25.458,8.284 -47.083,19.48 -64.87,33.588l-51.53,-100.296c26.992,-19.017 59.505,-33.737 97.538,-44.167c38.029,-10.429 76.675,-15.641 115.937,-15.641c75.45,-0 134.034,17.787 175.746,53.366c41.713,35.58 62.567,91.096 62.567,166.546l-0,282.484l-134.338,-0Zm-150.904,7.362c-38.646,0 -71.771,-6.596 -99.375,-19.783c-27.604,-13.192 -48.766,-31.134 -63.487,-53.829c-14.725,-22.696 -22.084,-48.155 -22.084,-76.371c0,-29.446 7.205,-55.209 21.621,-77.292c14.417,-22.083 37.267,-39.412 68.55,-51.987c31.288,-12.575 72.079,-18.863 122.379,-18.863l131.58,0l-0,83.729l-115.938,0c-33.737,0 -56.896,5.521 -69.471,16.563c-12.575,11.041 -18.862,24.846 -18.862,41.408c-0,18.404 7.208,32.971 21.625,43.704c14.416,10.738 34.196,16.104 59.35,16.104c23.921,0 45.391,-5.675 64.408,-17.02c19.017,-11.35 32.817,-28.067 41.404,-50.15l22.084,66.25c-10.425,31.9 -29.442,56.129 -57.046,72.691c-27.604,16.563 -63.184,24.846 -106.738,24.846Z" style="fill:#26a790;fill-rule:nonzero;"/><path d="M11999.3,9502.22c-46.621,-0 -88.642,-10.584 -126.058,-31.746c-37.421,-21.163 -67.017,-50.763 -88.796,-88.796c-21.775,-38.029 -32.663,-82.813 -32.663,-134.338c0,-52.141 10.888,-97.229 32.663,-135.262c21.779,-38.033 51.375,-67.475 88.796,-88.333c37.416,-20.855 79.437,-31.284 126.058,-31.284c41.713,0 78.213,9.2 109.496,27.604c31.283,18.405 55.512,46.313 72.692,83.734c17.175,37.416 25.762,85.266 25.762,143.541c0,57.663 -8.279,105.355 -24.842,143.08c-16.562,37.725 -40.333,65.791 -71.312,84.195c-30.979,18.4 -68.246,27.605 -111.796,27.605Zm24.842,-117.78c23.312,0 44.475,-5.52 63.491,-16.562c19.017,-11.042 34.196,-26.838 45.546,-47.388c11.35,-20.55 17.021,-44.933 17.021,-73.15c0,-28.833 -5.671,-53.37 -17.021,-73.612c-11.35,-20.242 -26.529,-35.883 -45.546,-46.925c-19.016,-11.042 -40.179,-16.563 -63.491,-16.563c-23.921,0 -45.392,5.521 -64.409,16.563c-19.016,11.042 -34.2,26.683 -45.545,46.925c-11.35,20.242 -17.025,44.779 -17.025,73.612c-0,28.217 5.675,52.6 17.025,73.15c11.345,20.55 26.529,36.346 45.545,47.388c19.017,11.042 40.488,16.562 64.409,16.562Zm129.741,110.417l0,-101.217l2.759,-147.22l-9.2,-146.305l-0,-288l143.541,0l0,682.742l-137.1,0Z" style="fill:#26a790;fill-rule:nonzero;"/></g></svg>