<?xml version="1.0" encoding="UTF-8" standalone="no"?>
<!DOCTYPE svg PUBLIC "-//W3C//DTD SVG 1.1//EN" "http://www.w3.org/Graphics/SVG/1.1/DTD/svg11.dtd">
<svg width="100%" height="100%" viewBox="0 0 14046 13388" version="1.1" xmlns="http://www.w3.org/2000/svg" xmlns:xlink="http://www.w3.org/1999/xlink" xml:space="preserve" xmlns:serif="http://www.serif.com/" style="fill-rule:evenodd;clip-rule:evenodd;stroke-linejoin:round;stroke-miterlimit:2;">
    <g transform="matrix(1.58685,0,0,1.58685,-5501.25,-4098.5)">
        <path d="M4652.8,8582.04C4002.72,8518.17 3494.08,7969.26 3494.08,7302.49C3494.08,6778.64 3808.03,6327.54 4257.97,6127.22C4227.16,5995.8 4210.86,5858.78 4210.86,5717.99C4210.86,4730.66 5012.44,3929.07 5999.78,3929.07C6674.12,3929.07 7261.83,4303 7566.72,4854.76C7803.65,4682.31 8095.31,4580.53 8410.55,4580.53C9203.21,4580.53 9846.76,5224.07 9846.76,6016.74L9846.75,6019.4C10517.6,6062.34 11049.2,6620.82 11049.2,7302.5C11049.2,7984.17 10517.6,8542.65 9846.76,8585.59L9846.76,8588.25L4652.81,8588.25L4652.81,8582.04L4652.8,8582.04Z" style="fill:white;"/>
    </g>
    <g>
        <g transform="matrix(1.58685,0,0,1.58685,-5501.25,-4098.5)">
            <path d="M7409.65,9140.59L7718.82,9140.59L7718.82,9260.21L7409.65,9260.21L7409.65,9140.59ZM7420.69,9494.84L7271.63,9494.84L7271.63,8850.75L7758.38,8850.75L7758.38,8970.36L7420.69,8970.36L7420.69,9494.84Z" style="fill:rgb(38,167,144);fill-rule:nonzero;"/>
        </g>
        <g transform="matrix(1.58685,0,0,1.58685,-5501.25,-4098.5)">
            <path d="M7849.48,9494.84L7849.48,8999.81L7993.02,8999.81L7993.02,9494.84L7849.48,9494.84ZM7921.25,8930.79C7894.88,8930.79 7873.4,8923.13 7856.84,8907.79C7840.28,8892.46 7832,8873.44 7832,8850.74C7832,8828.04 7840.28,8809.03 7856.84,8793.69C7873.4,8778.36 7894.88,8770.69 7921.25,8770.69C7947.63,8770.69 7969.1,8777.9 7985.66,8792.32C8002.23,8806.73 8010.51,8825.28 8010.51,8847.98C8010.51,8871.91 8002.38,8891.69 7986.12,8907.33C7969.87,8922.97 7948.24,8930.79 7921.25,8930.79Z" style="fill:rgb(38,167,144);fill-rule:nonzero;"/>
        </g>
        <g transform="matrix(1.58685,0,0,1.58685,-5501.25,-4098.5)">
            <rect x="8126.44" y="8812.09" width="143.542" height="682.742" style="fill:rgb(38,167,144);"/>
        </g>
        <g transform="matrix(1.58685,0,0,1.58685,-5501.25,-4098.5)">
            <path d="M8649.07,9502.22C8592.63,9502.22 8543.1,9491.18 8500.47,9469.09C8457.83,9447.01 8424.86,9416.8 8401.55,9378.46C8378.24,9340.12 8366.59,9296.42 8366.59,9247.34C8366.59,9197.65 8378.09,9153.64 8401.09,9115.3C8424.09,9076.96 8455.53,9046.9 8495.4,9025.12C8535.28,9003.35 8580.37,8992.46 8630.67,8992.46C8679.12,8992.46 8722.83,9002.74 8761.79,9023.29C8800.74,9043.84 8831.56,9073.28 8854.26,9111.62C8876.96,9149.96 8888.3,9195.81 8888.3,9249.18C8888.3,9254.7 8888,9260.99 8887.38,9268.04C8886.77,9275.1 8886.16,9281.69 8885.55,9287.82L8483.44,9287.82L8483.44,9204.09L8810.09,9204.09L8754.88,9228.94C8754.88,9203.17 8749.67,9180.78 8739.24,9161.76C8728.81,9142.75 8714.4,9127.87 8696,9117.14C8677.59,9106.4 8656.12,9101.04 8631.59,9101.04C8607.05,9101.04 8585.42,9106.4 8566.72,9117.14C8548.01,9127.87 8533.44,9142.9 8523.01,9162.23C8512.58,9181.55 8507.37,9204.4 8507.37,9230.78L8507.37,9252.86C8507.37,9279.85 8513.35,9303.62 8525.31,9324.17C8537.27,9344.72 8554.14,9360.36 8575.92,9371.1C8597.69,9381.83 8623.3,9387.2 8652.75,9387.2C8679.12,9387.2 8702.28,9383.21 8722.22,9375.24C8742.16,9367.26 8760.4,9355.3 8776.97,9339.35L8853.34,9422.17C8830.64,9447.93 8802.12,9467.71 8767.77,9481.51C8733.42,9495.32 8693.85,9502.22 8649.07,9502.22Z" style="fill:rgb(38,167,144);fill-rule:nonzero;"/>
        </g>
        <g transform="matrix(1.58685,0,0,1.58685,-5501.25,-4098.5)">
            <path d="M9280.27,9505.88C9188.87,9505.88 9117.41,9480.42 9065.88,9429.51C9014.35,9378.59 8988.59,9305.9 8988.59,9211.43L8988.59,8850.74L9137.65,8850.74L9137.65,9205.91C9137.65,9267.26 9150.22,9311.42 9175.37,9338.41C9200.52,9365.41 9235.8,9378.9 9281.19,9378.9C9326.58,9378.9 9361.86,9365.41 9387.01,9338.41C9412.16,9311.42 9424.73,9267.26 9424.73,9205.91L9424.73,8850.74L9571.95,8850.74L9571.95,9211.43C9571.95,9305.9 9546.19,9378.59 9494.66,9429.51C9443.14,9480.42 9371.67,9505.88 9280.27,9505.88Z" style="fill:rgb(38,167,144);fill-rule:nonzero;"/>
        </g>
        <g transform="matrix(1.58685,0,0,1.58685,-5501.25,-4098.5)">
            <path d="M10001.6,9502.22C9959.88,9502.22 9923.39,9493.01 9892.1,9474.61C9860.82,9456.21 9836.43,9428.15 9818.95,9390.42C9801.47,9352.69 9792.73,9305 9792.73,9247.34C9792.73,9189.07 9801.01,9141.22 9817.57,9103.8C9834.13,9066.38 9858.06,9038.47 9889.34,9020.07C9920.62,9001.66 9958.05,8992.46 10001.6,8992.46C10048.2,8992.46 10090.1,9003.04 10127.2,9024.21C10164.3,9045.37 10193.8,9074.97 10215.5,9113C10237.3,9151.03 10248.2,9195.81 10248.2,9247.34C10248.2,9299.48 10237.3,9344.57 10215.5,9382.6C10193.8,9420.63 10164.3,9450.08 10127.2,9470.93C10090.1,9491.79 10048.2,9502.22 10001.6,9502.22ZM9709,9673.36L9709,8999.82L9846.1,8999.82L9846.1,9101.04L9843.33,9248.26L9852.54,9394.56L9852.54,9673.36L9709,9673.36ZM9976.75,9384.44C10000.7,9384.44 10022,9378.92 10040.7,9367.88C10059.4,9356.84 10074.4,9341.04 10085.8,9320.49C10097.1,9299.94 10102.8,9275.56 10102.8,9247.34C10102.8,9218.51 10097.1,9193.97 10085.8,9173.73C10074.4,9153.49 10059.4,9137.84 10040.7,9126.8C10022,9115.76 10000.7,9110.24 9976.75,9110.24C9952.83,9110.24 9931.36,9115.76 9912.35,9126.8C9893.33,9137.84 9878.3,9153.49 9867.26,9173.73C9856.22,9193.97 9850.7,9218.51 9850.7,9247.34C9850.7,9275.56 9856.22,9299.94 9867.26,9320.49C9878.3,9341.04 9893.33,9356.84 9912.35,9367.88C9931.36,9378.92 9952.83,9384.44 9976.75,9384.44Z" style="fill:rgb(38,167,144);fill-rule:nonzero;"/>
        </g>
        <g transform="matrix(1.58685,0,0,1.58685,-5501.25,-4098.5)">
            <rect x="10344" y="8812.09" width="143.542" height="682.742" style="fill:rgb(38,167,144);"/>
        </g>
        <g transform="matrix(1.58685,0,0,1.58685,-5501.25,-4098.5)">
            <path d="M10856.5,9502.22C10803.7,9502.22 10757,9491.18 10716.2,9469.09C10675.4,9447.01 10643.2,9416.8 10619.6,9378.46C10595.9,9340.12 10584.1,9296.42 10584.1,9247.34C10584.1,9197.65 10595.9,9153.64 10619.6,9115.3C10643.2,9076.96 10675.4,9046.9 10716.2,9025.12C10757,9003.35 10803.7,8992.46 10856.5,8992.46C10908.6,8992.46 10955.3,9003.35 10996.4,9025.12C11037.5,9046.9 11069.7,9076.81 11093,9114.84C11116.3,9152.87 11127.9,9197.04 11127.9,9247.34C11127.9,9296.42 11116.3,9340.12 11093,9378.46C11069.7,9416.8 11037.5,9447.01 10996.4,9469.09C10955.3,9491.18 10908.6,9502.22 10856.5,9502.22ZM10856.5,9384.44C10880.4,9384.44 10901.9,9378.92 10920.9,9367.88C10939.9,9356.84 10955,9341.04 10966,9320.49C10977,9299.94 10982.6,9275.56 10982.6,9247.34C10982.6,9218.51 10977,9193.97 10966,9173.73C10955,9153.49 10939.9,9137.84 10920.9,9126.8C10901.9,9115.76 10880.4,9110.24 10856.5,9110.24C10832.6,9110.24 10811.1,9115.76 10792.1,9126.8C10773.1,9137.84 10757.9,9153.49 10746.5,9173.73C10735.2,9193.97 10729.5,9218.51 10729.5,9247.34C10729.5,9275.56 10735.2,9299.94 10746.5,9320.49C10757.9,9341.04 10773.1,9356.84 10792.1,9367.88C10811.1,9378.92 10832.6,9384.44 10856.5,9384.44Z" style="fill:rgb(38,167,144);fill-rule:nonzero;"/>
        </g>
        <g transform="matrix(1.58685,0,0,1.58685,-5501.25,-4098.5)">
            <path d="M11519,9494.84L11519,9398.22L11509.8,9377.06L11509.8,9204.08C11509.8,9173.4 11500.4,9149.48 11481.7,9132.31C11463,9115.13 11434.3,9106.54 11395.7,9106.54C11369.3,9106.54 11343.4,9110.68 11318,9118.96C11292.5,9127.24 11270.9,9138.44 11253.1,9152.55L11201.6,9052.25C11228.5,9033.24 11261.1,9018.51 11299.1,9008.09C11337.1,8997.66 11375.8,8992.44 11415,8992.44C11490.5,8992.44 11549.1,9010.23 11590.8,9045.81C11632.5,9081.39 11653.3,9136.91 11653.3,9212.36L11653.3,9494.84L11519,9494.84ZM11368.1,9502.2C11329.5,9502.2 11296.3,9495.61 11268.7,9482.42C11241.1,9469.23 11220,9451.28 11205.2,9428.59C11190.5,9405.89 11183.1,9380.43 11183.1,9352.22C11183.1,9322.77 11190.4,9297.01 11204.8,9274.93C11219.2,9252.84 11242,9235.51 11273.3,9222.94C11304.6,9210.36 11345.4,9204.08 11395.7,9204.08L11527.3,9204.08L11527.3,9287.81L11411.3,9287.81C11377.6,9287.81 11354.4,9293.33 11341.9,9304.37C11329.3,9315.41 11323,9329.22 11323,9345.78C11323,9364.18 11330.2,9378.75 11344.6,9389.48C11359.1,9400.22 11378.8,9405.59 11404,9405.59C11427.9,9405.59 11449.4,9399.91 11468.4,9388.57C11487.4,9377.22 11501.2,9360.5 11509.8,9338.42L11531.9,9404.67C11521.5,9436.57 11502.4,9460.79 11474.8,9477.36C11447.2,9493.92 11411.6,9502.2 11368.1,9502.2Z" style="fill:rgb(38,167,144);fill-rule:nonzero;"/>
        </g>
        <g transform="matrix(1.58685,0,0,1.58685,-5501.25,-4098.5)">
            <path d="M11999.3,9502.22C11952.7,9502.22 11910.7,9491.64 11873.2,9470.47C11835.8,9449.31 11806.2,9419.71 11784.4,9381.68C11762.7,9343.65 11751.8,9298.86 11751.8,9247.34C11751.8,9195.2 11762.7,9150.11 11784.4,9112.08C11806.2,9074.05 11835.8,9044.6 11873.2,9023.75C11910.7,9002.89 11952.7,8992.46 11999.3,8992.46C12041,8992.46 12077.5,9001.66 12108.8,9020.07C12140.1,9038.47 12164.3,9066.38 12181.5,9103.8C12198.7,9141.22 12207.2,9189.07 12207.2,9247.34C12207.2,9305 12199,9352.69 12182.4,9390.42C12165.8,9428.15 12142.1,9456.21 12111.1,9474.61C12080.1,9493.01 12042.9,9502.22 11999.3,9502.22ZM12024.1,9384.44C12047.5,9384.44 12068.6,9378.92 12087.6,9367.88C12106.6,9356.84 12121.8,9341.04 12133.2,9320.49C12144.5,9299.94 12150.2,9275.56 12150.2,9247.34C12150.2,9218.51 12144.5,9193.97 12133.2,9173.73C12121.8,9153.49 12106.6,9137.84 12087.6,9126.8C12068.6,9115.76 12047.5,9110.24 12024.1,9110.24C12000.2,9110.24 11978.8,9115.76 11959.7,9126.8C11940.7,9137.84 11925.5,9153.49 11914.2,9173.73C11902.8,9193.97 11897.2,9218.51 11897.2,9247.34C11897.2,9275.56 11902.8,9299.94 11914.2,9320.49C11925.5,9341.04 11940.7,9356.84 11959.7,9367.88C11978.8,9378.92 12000.2,9384.44 12024.1,9384.44ZM12153.9,9494.86L12153.9,9393.64L12156.6,9246.42L12147.4,9100.11L12147.4,8812.11L12291,8812.11L12291,9494.86L12153.9,9494.86Z" style="fill:rgb(38,167,144);fill-rule:nonzero;"/>
        </g>
    </g>
</svg>
