<?xml version="1.0" encoding="UTF-8" standalone="no"?><!DOCTYPE svg PUBLIC "-//W3C//DTD SVG 1.1//EN" "http://www.w3.org/Graphics/SVG/1.1/DTD/svg11.dtd"><svg width="100%" height="100%" viewBox="0 0 18821 13684" version="1.1" xmlns="http://www.w3.org/2000/svg" xmlns:xlink="http://www.w3.org/1999/xlink" xml:space="preserve" xmlns:serif="http://www.serif.com/" style="fill-rule:evenodd;clip-rule:evenodd;stroke-linejoin:round;stroke-miterlimit:2;"><g><g><path d="M4732.81,11350.9l-0,-668.403l303.646,-0c72.57,-0 136.545,14.323 191.927,42.014c55.382,27.691 98.351,65.885 129.861,115.538c31.511,49.653 46.789,108.854 46.789,176.649c-0,67.795 -15.278,126.042 -46.789,176.65c-31.51,49.653 -74.479,88.802 -129.861,116.493c-55.382,27.691 -119.357,41.059 -191.927,41.059l-303.646,-0Zm154.688,-126.997l141.319,0c44.879,0 83.073,-8.593 115.538,-24.826c33.421,-17.188 59.202,-41.059 77.344,-72.57c18.143,-31.51 26.736,-67.795 26.736,-109.809c0,-42.968 -8.593,-79.253 -26.736,-109.809c-18.142,-31.51 -43.923,-55.382 -77.344,-71.614c-32.465,-17.188 -70.659,-25.782 -115.538,-25.782l-141.319,0l-0,414.41Z" style="fill:#fff;fill-rule:nonzero;"/></g><g><path d="M5826.12,11350.9l-0,-100.261l-9.549,-21.961l0,-179.514c0,-31.511 -9.548,-56.337 -29.601,-74.48c-19.097,-18.142 -48.697,-26.736 -88.802,-26.736c-27.691,0 -54.427,4.775 -81.163,13.368c-25.781,8.594 -48.698,20.052 -66.84,34.375l-53.473,-104.08c27.691,-20.052 62.066,-35.33 101.216,-45.833c39.149,-10.503 79.253,-16.233 120.312,-16.233c78.299,0 139.41,18.143 182.379,55.382c42.969,37.24 64.931,94.532 64.931,172.83l-0,293.143l-139.41,-0Zm-156.598,7.639c-40.104,-0 -74.479,-6.684 -103.125,-20.052c-28.645,-14.323 -50.607,-32.466 -65.885,-56.337c-15.278,-23.872 -22.917,-49.653 -22.917,-79.254c0,-30.555 7.639,-57.291 22.917,-80.208c14.323,-22.917 38.194,-41.059 70.66,-53.472c32.465,-13.368 74.479,-20.052 126.996,-20.052l136.546,-0l-0,86.892l-120.313,0c-35.33,0 -59.201,5.729 -72.57,17.188c-12.413,11.458 -19.097,25.781 -19.097,42.968c0,19.098 7.639,34.375 21.962,45.834c15.278,10.503 36.285,16.232 62.066,16.232c24.826,0 46.788,-5.729 66.84,-17.187c20.052,-12.413 34.375,-29.601 42.969,-52.518l22.917,68.75c-10.504,33.421 -30.556,58.247 -59.202,75.435c-28.645,17.187 -65.885,25.781 -110.764,25.781Z" style="fill:#fff;fill-rule:nonzero;"/></g><g><path d="M6310.24,11358.5c-60.157,-0 -107.9,-15.278 -141.32,-46.788c-33.42,-30.556 -50.607,-76.389 -50.607,-137.501l-0,-450.694l148.958,-0l-0,448.785c-0,21.962 5.729,38.194 17.187,49.653c11.459,12.413 26.737,18.142 46.789,18.142c23.871,-0 43.923,-6.684 60.156,-19.097l40.104,105.035c-15.278,10.503 -33.42,19.097 -54.427,24.826c-21.962,4.774 -43.924,7.639 -66.84,7.639Zm-271.181,-395.313l-0,-114.583l356.163,-0l0,114.583l-356.163,0Z" style="fill:#fff;fill-rule:nonzero;"/></g><g><path d="M6754.25,11358.5c-58.247,-0 -109.81,-11.459 -154.688,-34.375c-43.924,-22.917 -78.299,-54.427 -102.17,-94.532c-23.872,-39.149 -36.285,-84.982 -36.285,-135.59c-0,-51.562 11.458,-97.396 35.33,-136.545c23.871,-40.104 57.292,-71.615 98.351,-93.577c41.059,-22.916 87.847,-34.375 140.364,-34.375c50.608,0 95.486,10.504 135.591,32.466c41.059,21.007 72.569,51.562 96.441,91.666c23.871,39.15 35.33,86.893 35.33,142.275c-0,5.729 -0,12.413 -0.955,20.052c-0.955,6.684 -0.955,13.368 -1.91,20.052l-417.275,0l0,-86.892l338.976,-0l-57.291,25.781c-0,-26.736 -5.73,-49.653 -16.233,-69.705c-10.503,-20.052 -25.781,-35.33 -44.879,-45.833c-19.097,-11.459 -41.059,-17.188 -66.84,-17.188c-25.781,0 -47.743,5.729 -67.795,17.188c-19.097,10.503 -34.375,26.736 -44.879,46.788c-10.503,20.052 -16.232,42.969 -16.232,70.66l-0,22.916c-0,27.691 6.684,52.518 18.142,74.479c13.368,21.007 30.556,37.24 53.472,47.744c21.962,11.458 48.698,17.187 79.254,17.187c27.691,0 51.563,-3.819 71.615,-12.413c21.007,-8.594 40.104,-21.007 57.291,-37.24l79.254,85.938c-23.872,26.736 -53.472,47.743 -88.802,62.066c-35.33,13.368 -76.389,21.007 -123.177,21.007Z" style="fill:#fff;fill-rule:nonzero;"/></g><g><path d="M7101.82,11350.9l0,-513.716l148.959,0l-0,513.716l-148.959,-0Zm74.479,-585.33c-27.691,-0 -49.652,-7.639 -66.84,-23.872c-17.187,-16.233 -25.781,-35.33 -25.781,-59.201c-0,-23.872 8.594,-42.969 25.781,-59.202c17.188,-16.232 39.149,-23.871 66.84,-23.871c27.691,-0 49.653,7.639 66.841,22.916c17.187,14.323 25.781,33.42 25.781,57.292c0,24.826 -8.594,45.833 -25.781,62.066c-16.233,16.233 -39.15,23.872 -66.841,23.872Z" style="fill:#fff;fill-rule:nonzero;"/></g><g><path d="M7644.18,11358.5c-58.247,-0 -109.809,-11.459 -154.688,-34.375c-43.923,-22.917 -78.298,-54.427 -102.17,-94.532c-23.872,-39.149 -36.285,-84.982 -36.285,-135.59c0,-51.562 11.459,-97.396 35.33,-136.545c23.872,-40.104 57.292,-71.615 98.351,-93.577c41.059,-22.916 87.847,-34.375 140.365,-34.375c50.607,0 95.486,10.504 135.59,32.466c41.059,21.007 72.569,51.562 96.441,91.666c23.872,39.15 35.33,86.893 35.33,142.275c-0,5.729 -0,12.413 -0.955,20.052c-0.955,6.684 -0.955,13.368 -1.91,20.052l-417.274,0l-0,-86.892l338.976,-0l-57.292,25.781c-0,-26.736 -5.729,-49.653 -16.233,-69.705c-10.503,-20.052 -25.781,-35.33 -44.878,-45.833c-19.097,-11.459 -41.059,-17.188 -66.841,-17.188c-25.781,0 -47.743,5.729 -67.795,17.188c-19.097,10.503 -34.375,26.736 -44.878,46.788c-10.504,20.052 -16.233,42.969 -16.233,70.66l0,22.916c0,27.691 6.684,52.518 18.142,74.479c13.369,21.007 30.556,37.24 53.473,47.744c21.962,11.458 48.698,17.187 79.253,17.187c27.691,0 51.563,-3.819 71.615,-12.413c21.007,-8.594 40.104,-21.007 57.292,-37.24l79.253,85.938c-23.871,26.736 -53.472,47.743 -88.802,62.066c-35.33,13.368 -76.389,21.007 -123.177,21.007Z" style="fill:#fff;fill-rule:nonzero;"/></g><g><path d="M8303.99,10829.6c41.059,0 77.344,8.594 108.855,24.827c32.465,16.232 58.246,41.059 76.389,74.479c18.142,33.42 27.691,75.434 27.691,127.951l-0,294.098l-148.959,-0l0,-271.181c0,-41.059 -8.594,-71.614 -26.736,-91.667c-18.142,-20.052 -43.924,-29.6 -77.344,-29.6c-23.871,-0 -44.878,4.774 -63.021,15.278c-19.097,9.548 -33.42,24.826 -43.923,44.878c-10.504,20.052 -16.233,46.788 -16.233,78.299l-0,253.993l-148.958,-0l-0,-513.716l142.274,0l-0,142.275l-26.736,-42.969c18.142,-34.375 44.878,-61.111 79.253,-79.254c34.375,-18.142 73.525,-27.691 117.448,-27.691Z" style="fill:#fff;fill-rule:nonzero;"/></g><g><path d="M9234.03,10829.6c41.059,0 77.344,8.594 108.854,24.827c32.465,16.232 58.247,41.059 76.389,74.479c18.142,33.42 27.691,75.434 27.691,127.951l0,294.098l-148.958,-0l-0,-271.181c-0,-41.059 -8.594,-71.614 -26.737,-91.667c-18.142,-20.052 -43.923,-29.6 -77.343,-29.6c-23.872,-0 -44.879,4.774 -63.021,15.278c-19.097,9.548 -33.42,24.826 -43.924,44.878c-10.503,20.052 -16.233,46.788 -16.233,78.299l0,253.993l-148.958,-0l-0,-708.508l148.958,0l0,337.067l-33.42,-42.969c18.143,-34.375 44.879,-61.111 79.254,-79.254c34.375,-18.142 73.524,-27.691 117.448,-27.691Z" style="fill:#fff;fill-rule:nonzero;"/></g><g><path d="M9829.86,11358.5c-54.427,-0 -103.125,-11.459 -146.094,-34.375c-42.014,-22.917 -75.434,-54.427 -100.261,-94.532c-23.871,-39.149 -36.284,-84.982 -36.284,-135.59c-0,-51.562 12.413,-97.396 36.284,-136.545c24.827,-40.104 58.247,-71.615 100.261,-93.577c42.969,-22.916 91.667,-34.375 146.094,-34.375c54.427,0 102.17,11.459 145.139,34.375c42.968,21.962 76.389,53.473 100.26,92.622c23.872,39.149 36.285,84.983 36.285,137.5c-0,50.608 -12.413,96.441 -36.285,136.545c-23.871,39.15 -57.292,70.66 -100.26,93.577c-42.969,22.916 -90.712,34.375 -145.139,34.375Zm-0,-122.222c24.826,-0 46.788,-5.73 66.84,-17.188c20.052,-11.458 35.33,-27.691 46.788,-48.698c11.459,-21.962 17.188,-46.788 17.188,-76.389c-0,-29.601 -5.729,-55.382 -17.188,-76.389c-11.458,-21.007 -26.736,-37.239 -46.788,-48.698c-20.052,-11.458 -42.014,-17.187 -66.84,-17.187c-24.827,-0 -46.789,5.729 -66.841,17.187c-20.052,11.459 -35.33,27.691 -46.788,48.698c-12.413,21.007 -18.142,46.788 -18.142,76.389c-0,29.601 5.729,54.427 18.142,76.389c11.458,21.007 26.736,37.24 46.788,48.698c20.052,11.458 42.014,17.188 66.841,17.188Z" style="fill:#fff;fill-rule:nonzero;"/></g><g><path d="M10459.1,11358.5c-55.382,-0 -105.035,-11.459 -148.004,-34.375c-42.969,-21.962 -77.344,-53.472 -102.17,-93.577c-23.872,-40.104 -36.285,-85.937 -36.285,-136.545c0,-51.562 12.413,-97.396 36.285,-136.545c24.826,-40.104 59.201,-71.615 102.17,-93.577c42.969,-22.916 92.622,-34.375 148.004,-34.375c54.427,0 101.215,11.459 141.319,34.375c40.104,21.962 69.705,54.428 88.802,96.441l-115.538,62.066c-13.368,-23.871 -29.601,-42.013 -49.653,-53.472c-20.052,-11.458 -42.014,-17.187 -65.885,-17.187c-25.782,-0 -48.698,5.729 -68.75,17.187c-20.052,11.459 -36.285,27.691 -47.743,48.698c-12.414,21.007 -18.143,46.788 -18.143,76.389c0,29.601 5.729,55.382 18.143,76.389c11.458,21.007 27.691,37.24 47.743,48.698c20.052,11.458 42.968,17.188 68.75,17.188c23.871,-0 45.833,-5.73 65.885,-17.188c20.052,-10.503 36.285,-28.646 49.653,-53.472l115.538,63.021c-19.097,41.059 -48.698,73.524 -88.802,96.441c-40.104,21.961 -86.892,33.42 -141.319,33.42Z" style="fill:#fff;fill-rule:nonzero;"/></g><g><path d="M11083.6,10829.6c41.059,0 77.344,8.594 108.855,24.827c32.465,16.232 58.246,41.059 76.388,74.479c18.143,33.42 27.691,75.434 27.691,127.951l0,294.098l-148.958,-0l0,-271.181c0,-41.059 -8.594,-71.614 -26.736,-91.667c-18.142,-20.052 -43.924,-29.6 -77.344,-29.6c-23.871,-0 -44.878,4.774 -63.021,15.278c-19.097,9.548 -33.42,24.826 -43.923,44.878c-10.504,20.052 -16.233,46.788 -16.233,78.299l-0,253.993l-148.959,-0l0,-708.508l148.959,0l-0,337.067l-33.42,-42.969c18.142,-34.375 44.878,-61.111 79.253,-79.254c34.375,-18.142 73.525,-27.691 117.448,-27.691Z" style="fill:#fff;fill-rule:nonzero;"/></g><g><rect x="11431.2" y="10642.4" width="148.958" height="708.508" style="fill:#fff;"/></g><g><path d="M12033.7,11350.9l-0,-100.261l-9.549,-21.961l0,-179.514c0,-31.511 -9.548,-56.337 -29.6,-74.48c-19.098,-18.142 -48.698,-26.736 -88.803,-26.736c-27.691,0 -54.427,4.775 -81.163,13.368c-25.781,8.594 -48.698,20.052 -66.84,34.375l-53.473,-104.08c27.691,-20.052 62.067,-35.33 101.216,-45.833c39.149,-10.503 79.253,-16.233 120.312,-16.233c78.299,0 139.41,18.143 182.379,55.382c42.969,37.24 64.931,94.532 64.931,172.83l-0,293.143l-139.41,-0Zm-156.598,7.639c-40.104,-0 -74.479,-6.684 -103.125,-20.052c-28.645,-14.323 -50.607,-32.466 -65.885,-56.337c-15.278,-23.872 -22.917,-49.653 -22.917,-79.254c0,-30.555 7.639,-57.291 22.917,-80.208c14.323,-22.917 38.194,-41.059 70.66,-53.472c32.465,-13.368 74.479,-20.052 126.996,-20.052l136.546,-0l-0,86.892l-120.313,0c-35.33,0 -59.201,5.729 -72.569,17.188c-12.414,11.458 -19.098,25.781 -19.098,42.968c0,19.098 7.639,34.375 21.962,45.834c15.278,10.503 36.285,16.232 62.066,16.232c24.827,0 46.788,-5.729 66.84,-17.187c20.053,-12.413 34.375,-29.601 42.969,-52.518l22.917,68.75c-10.504,33.421 -30.556,58.247 -59.202,75.435c-28.645,17.187 -65.885,25.781 -110.764,25.781Z" style="fill:#fff;fill-rule:nonzero;"/></g><g><path d="M12532.1,11358.5c-48.698,-0 -91.667,-11.459 -130.816,-33.42c-39.15,-21.962 -69.705,-52.518 -91.667,-91.667c-22.917,-39.149 -34.375,-85.938 -34.375,-139.41c-0,-54.427 11.458,-101.215 34.375,-140.365c21.962,-39.149 52.517,-69.705 91.667,-91.666c39.149,-21.962 82.118,-32.466 130.816,-32.466c42.969,0 81.163,9.549 113.628,28.646c32.466,19.097 57.292,47.743 75.434,86.893c18.143,39.149 26.737,88.802 26.737,148.958c-0,60.156 -8.594,109.809 -25.782,148.959c-17.187,39.149 -42.014,67.795 -74.479,86.892c-31.51,19.097 -70.66,28.646 -115.538,28.646Zm25.781,-122.222c23.872,-0 45.833,-5.73 65.885,-17.188c20.053,-11.458 35.33,-27.691 46.789,-48.698c12.413,-21.962 18.142,-46.788 18.142,-76.389c0,-29.601 -5.729,-55.382 -18.142,-76.389c-11.459,-21.007 -26.736,-37.239 -46.789,-48.698c-20.052,-11.458 -42.013,-17.187 -65.885,-17.187c-24.826,-0 -46.788,5.729 -66.84,17.187c-20.052,11.459 -35.33,27.691 -47.743,48.698c-11.459,21.007 -17.188,46.788 -17.188,76.389c0,29.601 5.729,54.427 17.188,76.389c12.413,21.007 27.691,37.24 47.743,48.698c20.052,11.458 42.014,17.188 66.84,17.188Zm134.636,114.583l-0,-105.035l2.864,-152.778l-9.548,-151.823l-0,-298.872l148.958,0l-0,708.508l-142.274,-0Z" style="fill:#fff;fill-rule:nonzero;"/></g><g><path d="M13227.3,11358.5c-58.246,-0 -109.809,-11.459 -154.687,-34.375c-43.924,-22.917 -78.299,-54.427 -102.171,-94.532c-23.871,-39.149 -36.284,-84.982 -36.284,-135.59c-0,-51.562 11.458,-97.396 35.329,-136.545c23.872,-40.104 57.292,-71.615 98.351,-93.577c41.059,-22.916 87.848,-34.375 140.365,-34.375c50.608,0 95.486,10.504 135.59,32.466c41.059,21.007 72.57,51.562 96.441,91.666c23.872,39.15 35.33,86.893 35.33,142.275c0,5.729 0,12.413 -0.955,20.052c-0.954,6.684 -0.954,13.368 -1.909,20.052l-417.275,0l0,-86.892l338.976,-0l-57.292,25.781c0,-26.736 -5.729,-49.653 -16.232,-69.705c-10.504,-20.052 -25.782,-35.33 -44.879,-45.833c-19.097,-11.459 -41.059,-17.188 -66.84,-17.188c-25.781,0 -47.743,5.729 -67.795,17.188c-19.098,10.503 -34.375,26.736 -44.879,46.788c-10.503,20.052 -16.233,42.969 -16.233,70.66l0,22.916c0,27.691 6.684,52.518 18.143,74.479c13.368,21.007 30.555,37.24 53.472,47.744c21.962,11.458 48.698,17.187 79.254,17.187c27.691,0 51.562,-3.819 71.614,-12.413c21.007,-8.594 40.104,-21.007 57.292,-37.24l79.254,85.938c-23.872,26.736 -53.473,47.743 -88.803,62.066c-35.33,13.368 -76.389,21.007 -123.177,21.007Z" style="fill:#fff;fill-rule:nonzero;"/></g><g><path d="M13887.1,10829.6c41.059,0 77.344,8.594 108.854,24.827c32.465,16.232 58.247,41.059 76.389,74.479c18.142,33.42 27.691,75.434 27.691,127.951l-0,294.098l-148.959,-0l0,-271.181c0,-41.059 -8.593,-71.614 -26.736,-91.667c-18.142,-20.052 -43.923,-29.6 -77.343,-29.6c-23.872,-0 -44.879,4.774 -63.021,15.278c-19.098,9.548 -33.421,24.826 -43.924,44.878c-10.503,20.052 -16.233,46.788 -16.233,78.299l0,253.993l-148.958,-0l-0,-513.716l142.274,0l0,142.275l-26.736,-42.969c18.143,-34.375 44.879,-61.111 79.254,-79.254c34.375,-18.142 73.524,-27.691 117.448,-27.691Z" style="fill:#fff;fill-rule:nonzero;"/></g><g><path d="M6381.39,11900.9l186.666,0l0,72.223l-186.666,-0l-0,-72.223Zm6.666,213.889l-90,0l0,-388.889l293.889,0l0,72.223l-203.889,-0l0,316.666Z" style="fill:#26a790;fill-rule:nonzero;"/></g><g><path d="M6765.28,12119.2c-25,-0 -46.667,-5 -66.111,-14.445c-20,-9.444 -35,-24.444 -45.556,-44.444c-10.555,-19.445 -16.111,-45 -16.111,-75.556l-0,-168.889l86.667,0l-0,156.112c-0,25 5.555,43.333 16.111,55c10.555,11.111 25,17.222 44.444,17.222c13.334,-0 25,-2.778 35.556,-8.334c10.555,-6.111 18.333,-15 24.444,-26.666c6.111,-12.222 8.889,-27.222 8.889,-45.556l0,-147.778l86.667,0l-0,298.889l-82.222,0l-0,-82.222l15,23.889c-10,20.556 -24.445,36.111 -44.445,46.667c-18.889,10.555 -40.555,16.111 -63.333,16.111Zm79.444,-344.445c-10.555,0 -20,-3.333 -27.222,-10.555c-7.222,-7.223 -11.111,-16.112 -11.111,-27.778c-0,-11.667 3.889,-20.556 11.111,-27.778c7.222,-7.222 16.667,-10.556 27.222,-10.556c10.556,0 20,3.334 27.223,10.556c7.777,7.222 11.666,16.111 11.666,27.778c0,11.666 -3.889,20.555 -11.666,27.778c-7.223,7.222 -16.667,10.555 -27.223,10.555Zm-112.222,0c-10.556,0 -20,-3.333 -27.222,-10.555c-7.778,-7.223 -11.667,-16.112 -11.667,-27.778c0,-11.667 3.889,-20.556 11.111,-27.778c7.778,-7.222 17.222,-10.556 27.778,-10.556c10.556,0 20,3.334 27.222,10.556c7.223,7.222 11.111,16.111 11.111,27.778c0,11.666 -3.888,20.555 -11.111,27.778c-7.222,7.222 -16.666,10.555 -27.222,10.555Z" style="fill:#26a790;fill-rule:nonzero;"/></g><g><path d="M7161.39,12227c-28.333,-0 -55.555,-3.334 -81.666,-10.556c-26.112,-6.666 -47.778,-16.666 -65.001,-30.555l34.445,-62.223c12.778,10.556 28.333,18.334 47.778,24.445c19.444,6.111 38.889,9.444 57.778,9.444c30.555,0 52.777,-6.666 66.666,-20.555c13.889,-13.889 21.111,-33.889 21.111,-61.111l0,-45.001l5.556,-75l-1.111,-75.555l-0,-64.445l82.222,0l0,248.889c0,55.556 -14.444,96.667 -43.333,122.778c-28.889,26.111 -70.556,39.445 -124.445,39.445Zm-13.333,-126.667c-27.778,-0 -52.778,-6.111 -75.556,-17.778c-22.222,-12.222 -40,-28.889 -53.889,-50.555c-13.333,-21.667 -20,-47.223 -20,-76.112c0,-29.444 6.667,-54.444 20,-76.111c13.889,-21.666 31.667,-38.889 53.889,-50.555c22.778,-11.667 47.778,-17.778 75.556,-17.778c25,-0 47.222,5 66.667,15.555c19.444,10 34.444,25.556 45,47.223c10.555,21.111 16.111,48.333 16.111,81.666c-0,32.778 -5.556,60 -16.111,81.667c-10.556,21.111 -25.556,36.667 -45,47.222c-19.445,10.556 -41.667,15.556 -66.667,15.556Zm17.222,-71.111c15,-0 28.889,-2.778 40.556,-8.889c11.666,-6.111 21.111,-15 27.778,-26.111c6.666,-11.111 10,-23.889 10,-38.334c-0,-15 -3.334,-27.777 -10,-38.333c-6.667,-11.111 -16.112,-19.444 -27.778,-25.556c-11.667,-6.111 -25.556,-9.444 -40.556,-9.444c-15,0 -28.889,3.333 -40.555,9.444c-11.667,6.112 -21.112,14.445 -27.778,25.556c-7.222,10.556 -10.556,23.333 -10.556,38.333c0,14.445 3.334,27.223 10.556,38.334c6.666,11.111 16.111,20 27.778,26.111c11.666,6.111 25.555,8.889 40.555,8.889Z" style="fill:#26a790;fill-rule:nonzero;"/></g><g><path d="M7558.05,12119.2c-33.889,-0 -63.889,-6.667 -90,-20c-25.555,-13.333 -45.555,-31.667 -59.444,-55c-13.889,-22.778 -21.111,-49.445 -21.111,-78.889c-0,-30 6.666,-56.667 20.555,-79.445c13.889,-23.333 33.334,-41.666 57.222,-54.444c23.889,-13.333 51.112,-20 81.667,-20c29.445,-0 55.556,6.111 78.889,18.889c23.889,12.222 42.222,30 56.111,53.333c13.889,22.778 20.556,50.556 20.556,82.778c-0,3.333 -0,7.222 -0.556,11.667c-0.555,3.889 -0.555,7.777 -1.111,11.666l-242.778,0l0,-50.555l197.223,-0l-33.334,15c0,-15.556 -3.333,-28.889 -9.444,-40.556c-6.111,-11.667 -15,-20.555 -26.111,-26.667c-11.112,-6.666 -23.889,-10 -38.889,-10c-15,0 -27.778,3.334 -39.445,10c-11.111,6.112 -20,15.556 -26.111,27.223c-6.111,11.666 -9.444,25 -9.444,41.111l-0,13.333c-0,16.111 3.889,30.556 10.555,43.334c7.778,12.222 17.778,21.666 31.111,27.777c12.778,6.667 28.334,10 46.111,10c16.112,0 30.001,-2.222 41.667,-7.222c12.222,-5 23.334,-12.222 33.334,-21.667l46.111,50.001c-13.889,15.555 -31.111,27.777 -51.667,36.111c-20.556,7.777 -44.444,12.222 -71.667,12.222Z" style="fill:#26a790;fill-rule:nonzero;"/></g><g><path d="M8094.16,12119.2c-26.111,-0 -48.889,-5.556 -67.778,-16.667c-18.889,-11.111 -33.333,-27.778 -43.333,-51.111c-10,-22.778 -15,-51.111 -15,-86.111c-0,-35 5,-63.889 15.555,-86.667c10.556,-22.778 25.556,-39.444 44.445,-50.555c18.889,-11.112 41.111,-16.667 66.111,-16.667c28.333,-0 53.333,6.111 75.555,18.889c22.778,12.778 40.556,30.555 53.889,53.333c12.778,22.778 19.445,50 19.445,81.667c-0,31.111 -6.667,58.333 -19.445,81.111c-13.333,22.778 -31.111,41.111 -53.889,53.889c-22.222,12.778 -47.222,18.889 -75.555,18.889Zm-176.667,-4.445l-0,-412.222l86.667,-0l-0,173.889l-5.556,88.333l1.667,88.889l-0,61.111l-82.778,0Zm161.667,-66.666c14.444,-0 27.222,-3.334 38.889,-10c11.111,-6.667 20,-16.111 26.666,-28.334c7.223,-12.777 10.556,-27.222 10.556,-44.444c-0,-17.222 -3.333,-32.222 -10.556,-44.445c-6.666,-12.222 -15.555,-21.666 -26.666,-28.333c-11.667,-6.667 -24.445,-10 -38.889,-10c-14.445,0 -27.222,3.333 -38.889,10c-11.667,6.667 -20.556,16.111 -27.222,28.333c-6.667,12.223 -10,27.223 -10,44.445c-0,17.222 3.333,31.667 10,44.444c6.666,12.223 15.555,21.667 27.222,28.334c11.667,6.666 24.444,10 38.889,10Z" style="fill:#26a790;fill-rule:nonzero;"/></g><g><path d="M8300.83,12114.8l-0,-298.889l86.666,0l0,298.889l-86.666,0Zm43.333,-340.555c-16.111,-0 -28.889,-4.445 -38.889,-13.889c-10,-9.445 -15,-20.556 -15,-34.445c0,-13.889 5,-25 15,-34.444c10,-9.445 22.778,-13.889 38.889,-13.889c16.111,-0 28.889,4.444 38.889,13.333c10,8.334 15,19.445 15,33.334c-0,14.444 -5,26.666 -15,36.111c-9.445,9.444 -22.778,13.889 -38.889,13.889Z" style="fill:#26a790;fill-rule:nonzero;"/></g><g><path d="M8568.61,12119.2c-25.556,-0 -50,-3.333 -73.889,-9.445c-23.334,-5.555 -41.667,-13.333 -55.556,-22.777l28.889,-62.223c13.889,8.334 30,15.556 48.889,21.111c18.333,5.001 36.667,7.778 55,7.778c20,0 34.444,-2.222 42.778,-7.222c7.778,-5 12.222,-11.667 12.222,-20c0,-7.222 -3.333,-12.222 -10,-15.556c-6.111,-3.888 -15,-6.666 -25.556,-8.333c-10.555,-1.667 -22.777,-3.889 -35.555,-5.555c-12.778,-1.667 -25.556,-4.445 -38.334,-7.223c-12.777,-3.333 -25,-8.333 -35.555,-14.444c-10.556,-6.111 -19.445,-15 -26.111,-25.556c-6.111,-10.555 -9.445,-24.444 -9.445,-41.666c0,-18.889 5.556,-35.556 16.111,-50c11.112,-14.445 27.223,-25.556 47.778,-33.889c20.556,-8.334 45.556,-12.778 74.445,-12.778c20.555,-0 41.111,2.222 62.222,6.667c21.111,4.444 38.889,11.111 52.778,19.444l-28.889,61.667c-14.445,-8.334 -28.889,-14.445 -43.889,-17.223c-14.444,-3.333 -28.333,-5 -42.222,-5c-19.445,0 -33.334,2.778 -42.223,7.778c-8.888,5 -13.333,11.667 -13.333,20c0,7.223 3.333,12.778 10,16.667c6.111,3.889 15,6.667 25.556,8.889c10.555,2.222 22.778,4.444 35.555,6.111c12.778,1.667 25.556,3.889 38.334,7.222c12.777,3.334 25,8.334 35.555,14.445c10.556,6.111 18.889,14.444 25.556,25c6.667,10.555 10,23.889 10,41.111c-0,18.333 -5.556,35 -16.667,49.444c-11.111,13.889 -27.222,25 -47.778,33.334c-21.111,8.333 -46.666,12.222 -76.666,12.222Z" style="fill:#26a790;fill-rule:nonzero;"/></g><g><path d="M8899.72,12114.8l0,-52.222l176.667,-208.889l15,28.889l-187.778,0l-0,-66.667l257.778,0l-0,52.223l-176.667,208.889l-15.555,-28.889l197.222,-0l-0,66.666l-266.667,0Z" style="fill:#26a790;fill-rule:nonzero;"/></g><g><path d="M9348.06,12119.2c-25,-0 -46.667,-5 -66.111,-14.445c-20,-9.444 -35,-24.444 -45.556,-44.444c-10.556,-19.445 -16.111,-45 -16.111,-75.556l-0,-168.889l86.667,0l-0,156.112c-0,25 5.555,43.333 16.111,55c10.555,11.111 25,17.222 44.444,17.222c13.333,-0 25,-2.778 35.556,-8.334c10.555,-6.111 18.333,-15 24.444,-26.666c6.111,-12.222 8.889,-27.222 8.889,-45.556l0,-147.778l86.667,0l-0,298.889l-82.222,0l-0,-82.222l15,23.889c-10,20.556 -24.445,36.111 -44.445,46.667c-18.889,10.555 -40.556,16.111 -63.333,16.111Z" style="fill:#26a790;fill-rule:nonzero;"/></g><g><path d="M9802.5,12114.8l-0,-355.555l38.888,38.889l-116.666,-0l-0,-72.223l167.778,0l-0,388.889l-90,0Z" style="fill:#26a790;fill-rule:nonzero;"/></g><g><path d="M10172.5,12121.5c-30.556,0 -58.889,-5 -84.445,-15c-26.111,-9.444 -48.333,-23.333 -67.778,-41.667c-18.888,-18.333 -33.888,-39.444 -44.444,-63.889c-10.556,-24.444 -15.556,-51.111 -15.556,-80.555c0,-29.445 5,-56.111 15.556,-80.556c10.556,-24.444 25.556,-45.555 45,-63.889c19.444,-18.333 41.667,-32.222 67.778,-42.222c26.111,-9.444 54.444,-14.444 85.555,-14.444c34.445,-0 65.556,5.555 92.778,17.222c27.778,11.666 51.111,28.333 70,50l-57.777,53.333c-13.889,-15 -29.445,-25.555 -46.112,-32.778c-16.666,-7.222 -35,-11.111 -54.444,-11.111c-18.889,0 -36.111,2.778 -51.667,8.889c-15.555,6.111 -28.889,14.445 -40.555,25.556c-11.112,11.111 -20,24.444 -26.112,39.444c-6.111,15 -8.888,32.222 -8.888,50.556c-0,18.333 2.777,35 8.888,50c6.112,15 15,28.333 26.112,40c11.666,11.111 25,19.444 40,25.555c15.555,6.112 32.777,8.889 51.111,8.889c17.778,0 35,-2.777 51.667,-8.333c17.222,-6.111 33.333,-15.556 49.444,-29.444l51.111,65c-21.111,16.111 -45.555,28.333 -73.889,36.666c-27.778,8.334 -55.555,12.778 -83.333,12.778Zm75,-61.111l-0,-146.111l82.222,-0l0,157.778l-82.222,-11.667Z" style="fill:#26a790;fill-rule:nonzero;"/></g><g><path d="M10413.1,12114.8l-0,-388.889l190,0c48.889,0 85.555,9.445 110.555,27.778c24.445,18.333 36.667,42.778 36.667,73.333c0,20.556 -5,38.334 -15,53.334c-10,15 -23.889,26.111 -41.111,34.444c-17.222,8.334 -37.222,12.223 -60,12.223l10.555,-22.778c24.445,-0 46.112,3.889 65,12.222c18.889,7.778 33.334,19.444 43.889,35c10.556,15.556 16.111,34.444 16.111,57.222c0,33.334 -13.333,59.445 -39.444,77.778c-26.111,18.889 -65,28.333 -116.111,28.333l-201.111,0Zm89.444,-67.777l105,-0c23.333,-0 41.111,-3.889 52.778,-11.667c12.222,-7.222 18.333,-19.445 18.333,-36.111c0,-16.111 -6.111,-28.334 -18.333,-36.667c-11.667,-7.778 -29.445,-11.667 -52.778,-11.667l-111.667,0l0,-65.555l96.112,-0c21.666,-0 38.333,-3.889 50,-11.667c11.666,-7.222 17.777,-18.889 17.777,-34.444c0,-15 -6.111,-26.667 -17.777,-34.445c-11.667,-7.222 -28.334,-11.111 -50,-11.111l-89.445,0l0,253.334Z" style="fill:#26a790;fill-rule:nonzero;"/></g><g><path d="M11170.8,11811.5c23.889,-0 45,5 63.333,14.444c18.889,9.445 33.889,23.889 44.445,43.334c10.555,19.444 16.111,43.889 16.111,74.444l-0,171.111l-86.667,0l0,-157.777c0,-23.889 -5,-41.667 -15.555,-53.334c-10.556,-11.667 -25.556,-17.222 -45,-17.222c-13.889,-0 -26.112,2.778 -36.667,8.889c-11.111,5.555 -19.445,14.444 -25.556,26.111c-6.111,11.667 -9.444,27.222 -9.444,45.556l-0,147.777l-86.667,0l0,-412.222l86.667,-0l-0,196.111l-19.445,-25c10.556,-20 26.112,-35.555 46.112,-46.111c20,-10.556 42.777,-16.111 68.333,-16.111Z" style="fill:#26a790;fill-rule:nonzero;"/></g><g><path d="M11373.1,12114.8l0,-298.889l86.667,0l0,298.889l-86.667,0Zm43.334,-340.555c-16.111,-0 -28.889,-4.445 -38.889,-13.889c-10,-9.445 -15,-20.556 -15,-34.445c-0,-13.889 5,-25 15,-34.444c10,-9.445 22.778,-13.889 38.889,-13.889c16.111,-0 28.889,4.444 38.889,13.333c10,8.334 15,19.445 15,33.334c-0,14.444 -5,26.666 -15,36.111c-9.445,9.444 -22.778,13.889 -38.889,13.889Z" style="fill:#26a790;fill-rule:nonzero;"/></g><g><path d="M11721.9,11811.5c23.889,-0 45.001,5 63.334,14.444c18.889,9.445 33.889,23.889 44.444,43.334c10.556,19.444 16.111,43.889 16.111,74.444l0,171.111l-86.666,0l-0,-157.777c-0,-23.889 -5,-41.667 -15.556,-53.334c-10.555,-11.667 -25.555,-17.222 -45,-17.222c-13.889,-0 -26.111,2.778 -36.667,8.889c-11.111,5.555 -19.444,14.444 -25.555,26.111c-6.111,11.667 -9.445,27.222 -9.445,45.556l0,147.777l-86.666,0l-0,-298.889l82.778,0l-0,82.778l-15.556,-25c10.556,-20 26.111,-35.555 46.111,-46.111c20,-10.556 42.778,-16.111 68.333,-16.111Z" style="fill:#26a790;fill-rule:nonzero;"/></g><g><path d="M11903.6,12114.8l0,-52.222l176.667,-208.889l15,28.889l-187.778,0l0,-66.667l257.778,0l0,52.223l-176.667,208.889l-15.555,-28.889l197.222,-0l0,66.666l-266.667,0Z" style="fill:#26a790;fill-rule:nonzero;"/></g><g><path d="M12351.9,12119.2c-25,-0 -46.667,-5 -66.111,-14.445c-20,-9.444 -35,-24.444 -45.556,-44.444c-10.555,-19.445 -16.111,-45 -16.111,-75.556l0,-168.889l86.667,0l-0,156.112c-0,25 5.555,43.333 16.111,55c10.556,11.111 25,17.222 44.444,17.222c13.334,-0 25,-2.778 35.556,-8.334c10.556,-6.111 18.333,-15 24.444,-26.666c6.112,-12.222 8.889,-27.222 8.889,-45.556l0,-147.778l86.667,0l0,298.889l-82.222,0l-0,-82.222l15,23.889c-10,20.556 -24.445,36.111 -44.445,46.667c-18.889,10.555 -40.555,16.111 -63.333,16.111Z" style="fill:#26a790;fill-rule:nonzero;"/></g></g><path d="M9410.42,3668.12c1382.11,0 2504.2,1122.1 2504.2,2504.21c0,1382.11 -1122.1,2504.2 -2504.2,2504.2c-1382.11,0 -2504.21,-1122.1 -2504.21,-2504.2c0,-1382.11 1122.1,-2504.21 2504.21,-2504.21Zm348.633,2155.53l-0,-920.067c-0,-449.693 -697.347,-449.693 -697.347,-0l0,920.067l-920.074,0c-449.7,0 -449.7,697.319 0,697.319l920.074,0l0,920.115c0,449.673 697.347,449.673 697.347,0l-0,-920.115l920.17,0c449.679,0 449.679,-697.319 -0,-697.319l-920.17,0Z" style="fill:#fff;"/></svg>